<?xml version="1.0" standalone="no"?>
<!DOCTYPE svg PUBLIC "-//W3C//DTD SVG 20010904//EN"
 "http://www.w3.org/TR/2001/REC-SVG-20010904/DTD/svg10.dtd">
<svg version="1.0" xmlns="http://www.w3.org/2000/svg"
 width="500.000000pt" height="500.000000pt" viewBox="0 0 500.000000 500.000000"
 preserveAspectRatio="xMidYMid meet">

<g transform="translate(0.000000,500.000000) scale(0.100000,-0.100000)"
fill="#000000" stroke="none">
<path d="M0 2500 l0 -2500 2500 0 2500 0 0 2500 0 2500 -2500 0 -2500 0 0
-2500z m4240 0 l0 -480 -1740 0 -1740 0 0 480 0 480 1740 0 1740 0 0 -480z"/>
<path d="M780 2500 l0 -450 1715 0 1715 0 0 450 0 450 -1715 0 -1715 0 0 -450z
m1720 0 l0 -390 -825 0 -825 0 0 390 0 390 825 0 825 0 0 -390z m450 50 l0
-130 70 0 70 0 0 -45 0 -45 -120 0 -120 0 0 175 0 175 50 0 50 0 0 -130z m511
-47 l67 -173 -52 0 c-47 0 -54 3 -64 25 -10 23 -17 25 -71 25 -54 0 -59 -2
-65 -25 -6 -23 -11 -25 -61 -25 -52 0 -54 1 -46 23 63 165 115 296 123 310 7
14 19 17 55 15 l47 -3 67 -172z m406 151 c44 -33 52 -68 26 -115 -12 -21 -17
-39 -12 -39 12 0 39 -55 39 -79 0 -12 -13 -35 -29 -53 l-29 -33 -121 -3 -121
-4 0 177 0 177 109 -4 c92 -3 114 -7 138 -24z"/>
<path d="M1150 2500 l0 -130 60 0 c102 0 160 46 160 127 0 89 -53 133 -159
133 l-61 0 0 -130z m160 75 c26 -24 35 -78 20 -116 -16 -37 -56 -59 -110 -59
l-40 0 0 101 0 101 55 -4 c33 -3 62 -12 75 -23z"/>
<path d="M1526 2598 c-99 -239 -96 -228 -76 -228 11 0 22 11 29 30 10 29 12
30 74 30 62 0 65 -1 77 -30 7 -18 20 -30 30 -30 16 0 11 18 -34 128 -58 139
-76 158 -100 100z m73 -125 c1 -9 -14 -13 -44 -13 -25 0 -45 4 -45 9 0 4 10
32 22 62 l22 53 22 -50 c13 -27 23 -55 23 -61z"/>
<path d="M1730 2615 c0 -11 11 -15 40 -15 l40 0 0 -115 c0 -108 1 -115 20
-115 19 0 20 7 20 114 l0 115 42 3 c23 2 43 9 46 16 3 9 -22 12 -102 12 -88 0
-106 -3 -106 -15z"/>
<path d="M2076 2598 c-99 -239 -96 -228 -76 -228 11 0 22 11 29 30 10 29 12
30 74 30 62 0 65 -1 77 -30 7 -18 20 -30 30 -30 16 0 11 18 -34 128 -58 139
-76 158 -100 100z m73 -125 c1 -9 -14 -13 -44 -13 -25 0 -45 4 -45 9 0 4 10
32 22 62 l22 53 22 -50 c13 -27 23 -55 23 -61z"/>
<path d="M3327 2512 c-23 -58 -22 -62 19 -62 39 0 39 2 10 75 l-12 29 -17 -42z"/>
<path d="M3720 2570 c0 -27 3 -30 34 -30 38 0 60 19 50 44 -4 11 -18 16 -45
16 -37 0 -39 -2 -39 -30z"/>
<path d="M3720 2435 c0 -33 2 -35 34 -35 31 0 66 20 66 39 0 17 -27 31 -62 31
-37 0 -38 -1 -38 -35z"/>
</g>
</svg>
